<svg width="16" height="16" viewBox="0 0 16 16" fill="none" xmlns="http://www.w3.org/2000/svg">
<mask id="mask0_442_3624" style="mask-type:alpha" maskUnits="userSpaceOnUse" x="3" y="3" width="10" height="10">
<path d="M8.00805 3.6665C8.19215 3.6665 8.34138 3.81574 8.34138 3.99984L8.341 7.6705H12.0263C12.2104 7.6705 12.3597 7.81974 12.3597 8.00384C12.3597 8.18793 12.2104 8.33717 12.0263 8.33717H8.34033L8.33338 12.0005C8.33302 12.1846 8.18348 12.3335 7.99938 12.3332C7.81529 12.3328 7.66635 12.1833 7.66672 11.9992L7.67366 8.3365L4.02566 8.32917C3.84157 8.3288 3.69263 8.17926 3.69299 7.99517C3.69336 7.81108 3.8429 7.66214 4.027 7.6625L7.67433 7.66984L7.67472 3.99984C7.67472 3.81574 7.82396 3.6665 8.00805 3.6665Z" fill="white"/>
</mask>
<g mask="url(#mask0_442_3624)">
<path d="M8.00805 3.6665C8.19215 3.6665 8.34138 3.81574 8.34138 3.99984L8.341 7.6705H12.0263C12.2104 7.6705 12.3597 7.81974 12.3597 8.00384C12.3597 8.18793 12.2104 8.33717 12.0263 8.33717H8.34033L8.33338 12.0005C8.33302 12.1846 8.18348 12.3335 7.99938 12.3332C7.81529 12.3328 7.66635 12.1833 7.66672 11.9992L7.67366 8.3365L4.02566 8.32917C3.84157 8.3288 3.69263 8.17926 3.69299 7.99517C3.69336 7.81108 3.8429 7.66214 4.027 7.6625L7.67433 7.66984L7.67472 3.99984C7.67472 3.81574 7.82396 3.6665 8.00805 3.6665Z" fill="#465986"/>
</g>
</svg>
