<svg width="33" height="39" viewBox="0 0 33 39" fill="none" xmlns="http://www.w3.org/2000/svg">
<rect x="1.2793" y="0.681641" width="31" height="37.4405" rx="5.5" fill="white"/>
<path d="M19.9863 9.47318L23.9863 13.469C24.347 13.8292 24.375 14.3964 24.0703 14.7888L23.9872 14.8831L19.9872 18.8883C19.5969 19.2791 18.9637 19.2795 18.573 18.8892C18.2122 18.529 18.1841 17.9618 18.4889 17.5693L18.572 17.475L20.8626 15.1817L10.2789 15.1817C9.76609 15.1817 9.34342 14.7956 9.28566 14.2983L9.27893 14.1817C9.27893 13.6688 9.66497 13.2462 10.1623 13.1884L10.2789 13.1817L20.8696 13.1817L18.5729 10.8881C18.2122 10.5279 18.1842 9.96064 18.489 9.56818L18.5721 9.47393C18.9324 9.11326 19.4996 9.08523 19.8921 9.39004L19.9863 9.47318L23.9863 13.469L19.9863 9.47318ZM24.2697 24.0651L24.2764 24.1817C24.2764 24.6945 23.8904 25.1172 23.393 25.1749L23.2764 25.1817L12.6926 25.1817L14.9864 27.4742C15.347 27.8345 15.375 28.4018 15.0702 28.7942L14.987 28.8884C14.6267 29.2491 14.0595 29.2771 13.6671 28.9723L13.5728 28.8891L9.57283 24.8929C9.21218 24.5326 9.18418 23.9653 9.48902 23.5729L9.57217 23.4787L13.5722 19.4749C13.9625 19.0842 14.5957 19.0839 14.9864 19.4742C15.347 19.8346 15.375 20.4018 15.0702 20.7942L14.987 20.8884L12.6966 23.1817L23.2764 23.1817C23.7892 23.1817 24.2119 23.5677 24.2697 24.0651L24.2764 24.1817L24.2697 24.0651Z" fill="#3E3E52"/>
<rect x="1.2793" y="0.681641" width="31" height="37.4405" rx="5.5" stroke="#E0E0E0"/>
</svg>
