<svg width="24" height="24" viewBox="0 0 24 24" fill="none" xmlns="http://www.w3.org/2000/svg">
<mask id="mask0_342_1274" style="mask-type:alpha" maskUnits="userSpaceOnUse" x="2" y="3" width="20" height="17">
<path d="M3 9V18C3 18.5523 3.44772 19 4 19H20C20.5523 19 21 18.5523 21 18V9H3ZM2 8H22V18C22 19.1046 21.1046 20 20 20H4C2.89543 20 2 19.1046 2 18V8ZM3 8H21V6C21 5.44772 20.5523 5 20 5H4C3.44772 5 3 5.44772 3 6V8ZM4 4H20C21.1046 4 22 4.89543 22 6V9H2V6C2 4.89543 2.89543 4 4 4ZM9.596 14.6146C10.1483 14.6146 10.596 15.0624 10.596 15.6146V16.6146C10.596 17.1669 10.1483 17.6146 9.596 17.6146H8.596C8.04371 17.6146 7.596 17.1669 7.596 16.6146V15.6146C7.596 15.0624 8.04371 14.6146 8.596 14.6146H9.596ZM15.596 14.6146C16.1483 14.6146 16.596 15.0624 16.596 15.6146V16.6146C16.596 17.1669 16.1483 17.6146 15.596 17.6146H14.596C14.0437 17.6146 13.596 17.1669 13.596 16.6146V15.6146C13.596 15.0624 14.0437 14.6146 14.596 14.6146H15.596ZM9.596 15.6146H8.596V16.6146H9.596V15.6146ZM15.596 15.6146H14.596V16.6146H15.596V15.6146ZM9.596 10.6146C10.1483 10.6146 10.596 11.0624 10.596 11.6146V12.6146C10.596 13.1669 10.1483 13.6146 9.596 13.6146H8.596C8.04371 13.6146 7.596 13.1669 7.596 12.6146V11.6146C7.596 11.0624 8.04371 10.6146 8.596 10.6146H9.596ZM9.596 11.6146H8.596V12.6146H9.596V11.6146ZM14.596 11.6146V12.6146H15.596V11.6146H14.596ZM15.596 10.6146C16.1483 10.6146 16.596 11.0624 16.596 11.6146V12.6146C16.596 13.1669 16.1483 13.6146 15.596 13.6146H14.596C14.0437 13.6146 13.596 13.1669 13.596 12.6146V11.6146C13.596 11.0624 14.0437 10.6146 14.596 10.6146H15.596ZM6.5 3C6.77614 3 7 3.22386 7 3.5V5.5C7 5.77614 6.77614 6 6.5 6C6.22386 6 6 5.77614 6 5.5V3.5C6 3.22386 6.22386 3 6.5 3ZM17.5 3C17.7761 3 18 3.22386 18 3.5V5.5C18 5.77614 17.7761 6 17.5 6C17.2239 6 17 5.77614 17 5.5V3.5C17 3.22386 17.2239 3 17.5 3Z" fill="white"/>
</mask>
<g mask="url(#mask0_342_1274)">
<path d="M3 9V18C3 18.5523 3.44772 19 4 19H20C20.5523 19 21 18.5523 21 18V9H3ZM2 8H22V18C22 19.1046 21.1046 20 20 20H4C2.89543 20 2 19.1046 2 18V8ZM3 8H21V6C21 5.44772 20.5523 5 20 5H4C3.44772 5 3 5.44772 3 6V8ZM4 4H20C21.1046 4 22 4.89543 22 6V9H2V6C2 4.89543 2.89543 4 4 4ZM9.596 14.6146C10.1483 14.6146 10.596 15.0624 10.596 15.6146V16.6146C10.596 17.1669 10.1483 17.6146 9.596 17.6146H8.596C8.04371 17.6146 7.596 17.1669 7.596 16.6146V15.6146C7.596 15.0624 8.04371 14.6146 8.596 14.6146H9.596ZM15.596 14.6146C16.1483 14.6146 16.596 15.0624 16.596 15.6146V16.6146C16.596 17.1669 16.1483 17.6146 15.596 17.6146H14.596C14.0437 17.6146 13.596 17.1669 13.596 16.6146V15.6146C13.596 15.0624 14.0437 14.6146 14.596 14.6146H15.596ZM9.596 15.6146H8.596V16.6146H9.596V15.6146ZM15.596 15.6146H14.596V16.6146H15.596V15.6146ZM9.596 10.6146C10.1483 10.6146 10.596 11.0624 10.596 11.6146V12.6146C10.596 13.1669 10.1483 13.6146 9.596 13.6146H8.596C8.04371 13.6146 7.596 13.1669 7.596 12.6146V11.6146C7.596 11.0624 8.04371 10.6146 8.596 10.6146H9.596ZM9.596 11.6146H8.596V12.6146H9.596V11.6146ZM14.596 11.6146V12.6146H15.596V11.6146H14.596ZM15.596 10.6146C16.1483 10.6146 16.596 11.0624 16.596 11.6146V12.6146C16.596 13.1669 16.1483 13.6146 15.596 13.6146H14.596C14.0437 13.6146 13.596 13.1669 13.596 12.6146V11.6146C13.596 11.0624 14.0437 10.6146 14.596 10.6146H15.596ZM6.5 3C6.77614 3 7 3.22386 7 3.5V5.5C7 5.77614 6.77614 6 6.5 6C6.22386 6 6 5.77614 6 5.5V3.5C6 3.22386 6.22386 3 6.5 3ZM17.5 3C17.7761 3 18 3.22386 18 3.5V5.5C18 5.77614 17.7761 6 17.5 6C17.2239 6 17 5.77614 17 5.5V3.5C17 3.22386 17.2239 3 17.5 3Z" fill="#3E3E52"/>
</g>
</svg>
