<svg width="46" height="25" viewBox="0 0 46 25" fill="none" xmlns="http://www.w3.org/2000/svg">
<path d="M28.3762 8.97075C28.9167 9.22165 29.3904 9.59219 29.7597 10.0531V4.88717H33.2601V18.9793H29.7597V17.651C29.4083 18.1175 28.9454 18.4924 28.4118 18.7431C27.8477 18.9957 27.2333 19.122 26.6132 19.1129C25.7012 19.1314 24.8019 18.9007 24.0161 18.4468C23.2651 18 22.6608 17.3516 22.2748 16.5783C21.8483 15.712 21.6364 14.7594 21.6562 13.7979C21.6357 12.8522 21.8443 11.9153 22.2649 11.0639C22.6448 10.3069 23.239 9.67309 23.9766 9.23796C24.7527 8.79749 25.6374 8.57444 26.5341 8.59318C27.1693 8.58218 27.7988 8.71122 28.3762 8.97075ZM27.4769 16.4622C27.7895 16.4726 28.1004 16.4138 28.3865 16.2901C28.6726 16.1663 28.9265 15.9809 29.1292 15.7477C29.5652 15.2279 29.7897 14.5687 29.7597 13.8966C29.7597 13.1221 29.5496 12.5012 29.1292 12.0339C28.9248 11.8034 28.6703 11.6207 28.3844 11.4991C28.0985 11.3774 27.7884 11.32 27.4769 11.3311C27.1631 11.3211 26.851 11.3803 26.5636 11.5043C26.2763 11.6283 26.021 11.8139 25.8167 12.0475C25.3757 12.565 25.1474 13.225 25.1763 13.8985C25.1474 14.5721 25.3757 15.2321 25.8167 15.7496C26.0216 15.9823 26.277 16.167 26.5643 16.2903C26.8516 16.4136 27.1634 16.4723 27.4769 16.4622Z" fill="white"/>
<path d="M43.8816 10.0725C44.8145 11.06 45.281 12.4154 45.281 14.1387C45.281 14.4039 45.281 14.6072 45.2612 14.7447H37.8653C37.9998 15.2755 38.3115 15.747 38.7507 16.0846C39.195 16.4022 39.7347 16.5657 40.2845 16.5493C40.7409 16.549 41.1926 16.4588 41.6127 16.284C42.0487 16.0999 42.4456 15.8372 42.7827 15.5095L44.611 17.2793C44.0599 17.8745 43.3771 18.3381 42.6147 18.6347C41.7726 18.9572 40.8743 19.1157 39.9702 19.1013C38.9348 19.1242 37.9091 18.9024 36.9798 18.4546C36.1561 18.0509 35.4747 17.415 35.0231 16.6287C34.5573 15.791 34.3236 14.8484 34.3452 13.8947C34.3233 12.9256 34.5604 11.9678 35.033 11.1161C35.4815 10.3222 36.1585 9.67506 36.9798 9.25539C37.88 8.80453 38.8804 8.57965 39.8911 8.60094C41.6212 8.59448 42.9514 9.085 43.8816 10.0725ZM38.5274 11.4957C38.132 11.8884 37.8727 12.3931 37.7862 12.9382H41.8815C41.8925 12.6767 41.8504 12.4157 41.7574 12.1703C41.6644 11.925 41.5225 11.7002 41.3399 11.5092C41.1531 11.3273 40.9299 11.1852 40.6843 11.0919C40.4387 10.9986 40.1761 10.9561 39.9129 10.9671C39.6569 10.9616 39.4024 11.0057 39.1638 11.0968C38.928 11.1872 38.713 11.3228 38.5313 11.4957H38.5274Z" fill="white"/>
<path d="M6.92157 11.666V8.568C6.22544 8.5562 5.53795 8.72024 4.92533 9.04432C4.33448 9.36814 3.84202 9.83989 3.49831 10.4113V8.7016H0.00390625V18.9793H3.50425V13.7378C3.53341 13.4368 3.62701 13.1452 3.77897 12.882C3.93151 12.6175 4.13969 12.3878 4.38971 12.2082C4.90227 11.8338 5.57098 11.6473 6.39583 11.6486C6.56976 11.6467 6.74566 11.6525 6.92157 11.666Z" fill="white"/>
<path d="M20.9921 18.2474C19.7523 19.4281 18.1874 20.2283 16.4897 20.5496V12.9536L21.2332 5.98309C21.7646 6.52986 22.2217 7.14162 22.593 7.80318C22.7116 7.72186 22.8322 7.64247 22.9587 7.56889C23.8234 7.06857 24.7922 6.76609 25.7929 6.68402C24.7797 4.67832 23.2144 2.99001 21.2737 1.80963C19.3329 0.629258 17.094 0.00381698 14.8097 0.00390626C12.5237 0.00452683 10.2836 0.631532 8.34231 1.81406C6.40106 2.99658 4.83615 4.68748 3.82444 6.69564C4.82511 6.77797 5.79392 7.08043 6.6587 7.58051C6.78321 7.65409 6.90576 7.73347 7.02435 7.8148C7.39568 7.15324 7.85274 6.54148 8.38417 5.99471L13.1277 12.9653V20.5612C11.4302 20.2395 9.86538 19.4394 8.62529 18.259C8.09851 19.0091 7.41545 19.6413 6.62114 20.114C6.43935 20.2209 6.25199 20.3185 6.05983 20.4063C7.19832 21.5491 8.55894 22.4569 10.0614 23.0761C11.5639 23.6953 13.1777 24.0134 14.8077 24.0117C16.438 24.0137 18.0523 23.6957 19.5551 23.0765C21.0579 22.4573 22.4188 21.5493 23.5576 20.4063C23.3599 20.3173 23.1781 20.2224 22.9943 20.114C22.1999 19.6372 21.5175 19.001 20.9921 18.2474ZM14.8097 9.4916L11.1216 4.07974C12.2788 3.56087 13.537 3.29336 14.8097 3.29556C16.0833 3.29436 17.3422 3.5632 18.4998 4.08362L14.8097 9.50516V9.4916Z" fill="white"/>
</svg>
