<svg xmlns="http://www.w3.org/2000/svg" width="111" height="72" viewBox="0 0 111 72">
    <g fill="none" fill-rule="evenodd">
        <g>
            <g transform="translate(-134 -192) translate(134 192)">
                <path fill="#7F8271" fill-rule="nonzero" d="M85.043 46.426L73.412 44.917 54.997 45.609 36.582 42.522 27.374 45.609 0.526 70.103 18.166 67.514 54.997 71.238 91.828 67.514 110.243 70.615z" opacity=".3"/>
                <path fill="#F0F1F2" fill-rule="nonzero" d="M27.374 42.785L36.582 39.683 18.166 64.052 0.526 69.715z"/>
                <path fill="#38B87C" fill-rule="nonzero" d="M36.582 39.683L18.166 64.052 54.997 70.242 54.997 42.785z" opacity=".4"/>
                <path fill="#FFF" fill-rule="nonzero" d="M36.582 39.683L18.166 64.052 19.551 64.288 37.315 39.808z"/>
                <path fill="#F0F1F2" fill-rule="nonzero" d="M73.412 39.683L54.997 42.785 54.997 70.242 91.828 64.052z"/>
                <path fill="#38B87C" fill-rule="nonzero" d="M73.412 39.683L82.62 42.785 110.243 70.242 91.828 64.052z" opacity=".4"/>
                <path fill="#FFF" fill-rule="nonzero" d="M73.412 39.683L91.828 64.052 93.448 64.606 74.354 40.002z"/>
                <path fill="#FFF" fill-rule="nonzero" d="M80.585 58.569L63.346 61.394 63.111 59.497 56.838 54.748 66.323 48.198 78.023 45.775 87.577 48.808 87.84 48.891 85.902 46.772 76.542 43.837 65.451 46.163 54.457 53.778 45.872 57.808 39.808 56.658 43.352 49.154 37.011 47.728 41.151 41.538 39.351 40.348 38.88 41.04 33.508 49.071 39.932 50.538 37.066 56.146 25.768 54 11.714 59.372 10.855 59.691 8.834 61.989 24.051 56.271 46.205 60.051 54.858 55.966 61.075 60.674 61.92 67.458 64.08 67.182 63.623 63.554 79.574 60.937 82.578 65.423 83.326 64.925 84.365 64.218z"/>
                <path fill="#FFF" fill-rule="nonzero" d="M19.62 62.128L5.538 66.669 27.803 43.38 35.751 40.735 36.526 39.711 27.374 42.785 0.526 69.715 18.166 64.052 18.305 64.08 19.745 62.155z"/>
                <path fill="#FFF" fill-rule="nonzero" d="M54.997 42.785L36.582 39.683 36.526 39.711 35.751 40.735 35.806 40.722 54.997 43.837 55.011 43.837 55.011 42.771zM54.997 68.677L19.745 62.155 18.305 64.08 54.997 70.242 55.011 70.242 55.011 68.677zM55.066 68.663L55.011 68.677 55.011 70.242 55.066 70.228 91.786 64.066 90.748 62.668z"/>
                <path fill="#FFF" fill-rule="nonzero" d="M91.828 64.052L110.243 70.242 82.62 42.785 73.565 39.738 74.229 40.625 82.274 43.394 105.826 67.486 90.775 62.668 90.775 62.668 90.748 62.668 91.786 64.066 91.814 64.052z"/>
                <path fill="#FFF" fill-rule="nonzero" d="M73.426 39.683L73.412 39.683 55.066 42.771 55.011 42.771 55.011 43.837 55.066 43.823 74.091 40.569 74.229 40.625 73.565 39.738z"/>
                <ellipse cx="55.385" cy="53.903" stroke="#2F97FC" stroke-width=".53" rx="19.731" ry="5.428"/>
                <ellipse cx="55.385" cy="53.903" fill="#2F97FC" fill-rule="nonzero" opacity=".2" rx="19.731" ry="5.428"/>
                <path fill="#D84E55" fill-rule="nonzero" d="M74.188 19.385C74.188 9 65.769.582 55.385.582 45 .582 36.582 9 36.582 19.385c0 5.372 5.39 16.403 16.172 33.092.236.375.553.692.928.928.697.453 1.546.61 2.359.435.813-.174 1.524-.664 1.974-1.363 10.782-16.69 16.173-27.72 16.173-33.092zm-18.803 6.023c-3.115 0-5.923-1.877-7.114-4.756-1.19-2.878-.53-6.19 1.675-8.391 2.205-2.201 5.518-2.856 8.394-1.66 2.877 1.196 4.749 4.007 4.743 7.122-.008 4.246-3.452 7.685-7.698 7.685z"/>
            </g>
        </g>
    </g>
</svg>
